<svg xmlns="http://www.w3.org/2000/svg" viewBox="135.40625 135.40625 104.25 104.25" preserveAspectRatio="xMidYMid meet" version="1.0">
  <defs>
    <clipPath id="bd8f72a737">
      <path d="M 135.40625 135.40625 L 239.65625 135.40625 L 239.65625 239.65625 L 135.40625 239.65625 Z M 135.40625 135.40625 " clip-rule="nonzero"/>
    </clipPath>
  </defs>
  <g clip-path="url(#bd8f72a737)">
    <path fill="#3b82f6" d="M 187.488281 187.488281 L 135.40625 187.488281 C 135.40625 158.722656 158.722656 135.40625 187.488281 135.40625 Z M 187.488281 187.488281 L 187.488281 239.570312 C 216.253906 239.570312 239.570312 216.253906 239.570312 187.488281 Z M 151.085938 199.589844 C 144.496094 206.179688 144.496094 216.863281 151.085938 223.453125 C 157.675781 230.042969 168.359375 230.042969 174.949219 223.453125 C 181.539062 216.863281 181.539062 206.179688 174.949219 199.589844 C 168.359375 193 157.675781 193 151.085938 199.589844 Z M 224.292969 173.378906 C 230.882812 166.789062 230.882812 156.105469 224.292969 149.515625 C 217.703125 142.925781 207.019531 142.925781 200.429688 149.515625 C 193.839844 156.105469 193.839844 166.789062 200.429688 173.378906 C 207.019531 179.96875 217.703125 179.96875 224.292969 173.378906 Z M 224.292969 173.378906 " fill-opacity="1" fill-rule="nonzero"/>
  </g>
</svg>