<svg xmlns="http://www.w3.org/2000/svg" xmlns:xlink="http://www.w3.org/1999/xlink" width="500" zoomAndPan="magnify" viewBox="0 0 375 374.999991" height="500" preserveAspectRatio="xMidYMid meet" version="1.0"><defs><g/><clipPath id="d66e3bbcc3"><path d="M 130.058594 77.785156 L 244.808594 77.785156 L 244.808594 192.535156 L 130.058594 192.535156 Z M 130.058594 77.785156 " clip-rule="nonzero"/></clipPath></defs><g clip-path="url(#d66e3bbcc3)"><path fill="#3b82f6" d="M 187.488281 135.21875 L 130.058594 135.21875 C 130.058594 103.5 155.769531 77.785156 187.488281 77.785156 Z M 187.488281 135.21875 L 187.488281 192.648438 C 219.207031 192.648438 244.921875 166.9375 244.921875 135.21875 Z M 147.347656 148.5625 C 140.082031 155.828125 140.082031 167.609375 147.347656 174.875 C 154.617188 182.144531 166.398438 182.144531 173.664062 174.875 C 180.929688 167.609375 180.929688 155.828125 173.664062 148.5625 C 166.398438 141.292969 154.617188 141.292969 147.347656 148.5625 Z M 228.074219 119.660156 C 235.34375 112.394531 235.34375 100.609375 228.074219 93.34375 C 220.808594 86.078125 209.027344 86.078125 201.761719 93.34375 C 194.492188 100.609375 194.492188 112.394531 201.761719 119.660156 C 209.027344 126.925781 220.808594 126.925781 228.074219 119.660156 Z M 228.074219 119.660156 " fill-opacity="1" fill-rule="nonzero"/></g><g fill="#000000" fill-opacity="1"><g transform="translate(62.326859, 255.972713)"><g><path d="M 46.640625 -38.203125 L 46.640625 0 L 37.328125 0 L 37.328125 -22.90625 L 28.796875 0 L 21.28125 0 L 12.6875 -22.96875 L 12.6875 0 L 3.375 0 L 3.375 -38.203125 L 14.375 -38.203125 L 25.09375 -11.75 L 35.703125 -38.203125 Z M 46.640625 -38.203125 "/></g></g></g><g fill="#000000" fill-opacity="1"><g transform="translate(110.370698, 255.972713)"><g><path d="M 32 -15.671875 C 32 -14.804688 31.945312 -13.898438 31.84375 -12.953125 L 10.78125 -12.953125 C 10.925781 -11.066406 11.53125 -9.625 12.59375 -8.625 C 13.664062 -7.625 14.984375 -7.125 16.546875 -7.125 C 18.867188 -7.125 20.484375 -8.101562 21.390625 -10.0625 L 31.296875 -10.0625 C 30.785156 -8.070312 29.867188 -6.273438 28.546875 -4.671875 C 27.222656 -3.078125 25.5625 -1.828125 23.5625 -0.921875 C 21.570312 -0.015625 19.34375 0.4375 16.875 0.4375 C 13.894531 0.4375 11.242188 -0.195312 8.921875 -1.46875 C 6.597656 -2.738281 4.785156 -4.550781 3.484375 -6.90625 C 2.179688 -9.269531 1.53125 -12.03125 1.53125 -15.1875 C 1.53125 -18.34375 2.171875 -21.097656 3.453125 -23.453125 C 4.742188 -25.816406 6.550781 -27.628906 8.875 -28.890625 C 11.195312 -30.160156 13.863281 -30.796875 16.875 -30.796875 C 19.8125 -30.796875 22.421875 -30.179688 24.703125 -28.953125 C 26.992188 -27.722656 28.78125 -25.960938 30.0625 -23.671875 C 31.351562 -21.390625 32 -18.722656 32 -15.671875 Z M 22.46875 -18.125 C 22.46875 -19.71875 21.921875 -20.984375 20.828125 -21.921875 C 19.742188 -22.867188 18.390625 -23.34375 16.765625 -23.34375 C 15.203125 -23.34375 13.882812 -22.890625 12.8125 -21.984375 C 11.738281 -21.078125 11.078125 -19.789062 10.828125 -18.125 Z M 22.46875 -18.125 "/></g></g></g><g fill="#000000" fill-opacity="1"><g transform="translate(141.982653, 255.972713)"><g><path d="M 32 -15.671875 C 32 -14.804688 31.945312 -13.898438 31.84375 -12.953125 L 10.78125 -12.953125 C 10.925781 -11.066406 11.53125 -9.625 12.59375 -8.625 C 13.664062 -7.625 14.984375 -7.125 16.546875 -7.125 C 18.867188 -7.125 20.484375 -8.101562 21.390625 -10.0625 L 31.296875 -10.0625 C 30.785156 -8.070312 29.867188 -6.273438 28.546875 -4.671875 C 27.222656 -3.078125 25.5625 -1.828125 23.5625 -0.921875 C 21.570312 -0.015625 19.34375 0.4375 16.875 0.4375 C 13.894531 0.4375 11.242188 -0.195312 8.921875 -1.46875 C 6.597656 -2.738281 4.785156 -4.550781 3.484375 -6.90625 C 2.179688 -9.269531 1.53125 -12.03125 1.53125 -15.1875 C 1.53125 -18.34375 2.171875 -21.097656 3.453125 -23.453125 C 4.742188 -25.816406 6.550781 -27.628906 8.875 -28.890625 C 11.195312 -30.160156 13.863281 -30.796875 16.875 -30.796875 C 19.8125 -30.796875 22.421875 -30.179688 24.703125 -28.953125 C 26.992188 -27.722656 28.78125 -25.960938 30.0625 -23.671875 C 31.351562 -21.390625 32 -18.722656 32 -15.671875 Z M 22.46875 -18.125 C 22.46875 -19.71875 21.921875 -20.984375 20.828125 -21.921875 C 19.742188 -22.867188 18.390625 -23.34375 16.765625 -23.34375 C 15.203125 -23.34375 13.882812 -22.890625 12.8125 -21.984375 C 11.738281 -21.078125 11.078125 -19.789062 10.828125 -18.125 Z M 22.46875 -18.125 "/></g></g></g><g fill="#000000" fill-opacity="1"><g transform="translate(173.594609, 255.972713)"><g><path d="M 20.296875 -7.890625 L 20.296875 0 L 15.5625 0 C 12.1875 0 9.554688 -0.820312 7.671875 -2.46875 C 5.785156 -4.125 4.84375 -6.820312 4.84375 -10.5625 L 4.84375 -22.640625 L 1.140625 -22.640625 L 1.140625 -30.375 L 4.84375 -30.375 L 4.84375 -37.765625 L 14.15625 -37.765625 L 14.15625 -30.375 L 20.25 -30.375 L 20.25 -22.640625 L 14.15625 -22.640625 L 14.15625 -10.453125 C 14.15625 -9.546875 14.367188 -8.890625 14.796875 -8.484375 C 15.234375 -8.085938 15.960938 -7.890625 16.984375 -7.890625 Z M 20.296875 -7.890625 "/></g></g></g><g fill="#000000" fill-opacity="1"><g transform="translate(193.780418, 255.972713)"><g><path d="M 17.203125 0.4375 C 14.222656 0.4375 11.546875 -0.195312 9.171875 -1.46875 C 6.796875 -2.738281 4.925781 -4.550781 3.5625 -6.90625 C 2.207031 -9.269531 1.53125 -12.03125 1.53125 -15.1875 C 1.53125 -18.300781 2.21875 -21.046875 3.59375 -23.421875 C 4.96875 -25.804688 6.851562 -27.628906 9.25 -28.890625 C 11.644531 -30.160156 14.332031 -30.796875 17.3125 -30.796875 C 20.28125 -30.796875 22.960938 -30.160156 25.359375 -28.890625 C 27.753906 -27.628906 29.640625 -25.804688 31.015625 -23.421875 C 32.398438 -21.046875 33.09375 -18.300781 33.09375 -15.1875 C 33.09375 -12.0625 32.390625 -9.3125 30.984375 -6.9375 C 29.585938 -4.5625 27.679688 -2.738281 25.265625 -1.46875 C 22.859375 -0.195312 20.171875 0.4375 17.203125 0.4375 Z M 17.203125 -7.625 C 18.972656 -7.625 20.484375 -8.273438 21.734375 -9.578125 C 22.992188 -10.878906 23.625 -12.75 23.625 -15.1875 C 23.625 -17.613281 23.015625 -19.476562 21.796875 -20.78125 C 20.578125 -22.09375 19.082031 -22.75 17.3125 -22.75 C 15.488281 -22.75 13.976562 -22.101562 12.78125 -20.8125 C 11.59375 -19.53125 11 -17.65625 11 -15.1875 C 11 -12.75 11.585938 -10.878906 12.765625 -9.578125 C 13.941406 -8.273438 15.421875 -7.625 17.203125 -7.625 Z M 17.203125 -7.625 "/></g></g></g><g fill="#000000" fill-opacity="1"><g transform="translate(226.534985, 255.972713)"><g><path d="M 12.6875 -26.0625 C 13.59375 -27.476562 14.84375 -28.617188 16.4375 -29.484375 C 18.03125 -30.359375 19.898438 -30.796875 22.046875 -30.796875 C 24.546875 -30.796875 26.8125 -30.160156 28.84375 -28.890625 C 30.875 -27.628906 32.476562 -25.816406 33.65625 -23.453125 C 34.832031 -21.097656 35.421875 -18.359375 35.421875 -15.234375 C 35.421875 -12.117188 34.832031 -9.367188 33.65625 -6.984375 C 32.476562 -4.609375 30.875 -2.773438 28.84375 -1.484375 C 26.8125 -0.203125 24.546875 0.4375 22.046875 0.4375 C 19.941406 0.4375 18.082031 0.00390625 16.46875 -0.859375 C 14.851562 -1.734375 13.59375 -2.863281 12.6875 -4.25 L 12.6875 14.46875 L 3.375 14.46875 L 3.375 -30.375 L 12.6875 -30.375 Z M 25.953125 -15.234375 C 25.953125 -17.554688 25.304688 -19.378906 24.015625 -20.703125 C 22.734375 -22.023438 21.148438 -22.6875 19.265625 -22.6875 C 17.410156 -22.6875 15.835938 -22.015625 14.546875 -20.671875 C 13.265625 -19.335938 12.625 -17.507812 12.625 -15.1875 C 12.625 -12.863281 13.265625 -11.03125 14.546875 -9.6875 C 15.835938 -8.34375 17.410156 -7.671875 19.265625 -7.671875 C 21.117188 -7.671875 22.695312 -8.347656 24 -9.703125 C 25.300781 -11.066406 25.953125 -12.910156 25.953125 -15.234375 Z M 25.953125 -15.234375 "/></g></g></g><g fill="#000000" fill-opacity="1"><g transform="translate(261.574778, 255.972713)"><g><path d="M 8.046875 -33.53125 C 6.421875 -33.53125 5.085938 -34.007812 4.046875 -34.96875 C 3.015625 -35.925781 2.5 -37.113281 2.5 -38.53125 C 2.5 -39.976562 3.015625 -41.179688 4.046875 -42.140625 C 5.085938 -43.109375 6.421875 -43.59375 8.046875 -43.59375 C 9.648438 -43.59375 10.96875 -43.109375 12 -42.140625 C 13.03125 -41.179688 13.546875 -39.976562 13.546875 -38.53125 C 13.546875 -37.113281 13.03125 -35.925781 12 -34.96875 C 10.96875 -34.007812 9.648438 -33.53125 8.046875 -33.53125 Z M 12.6875 -30.375 L 12.6875 0 L 3.375 0 L 3.375 -30.375 Z M 12.6875 -30.375 "/></g></g></g><g fill="#000000" fill-opacity="1"><g transform="translate(275.721048, 255.972713)"><g><path d="M 1.53125 -15.234375 C 1.53125 -18.359375 2.117188 -21.097656 3.296875 -23.453125 C 4.472656 -25.816406 6.078125 -27.628906 8.109375 -28.890625 C 10.140625 -30.160156 12.40625 -30.796875 14.90625 -30.796875 C 17.050781 -30.796875 18.929688 -30.359375 20.546875 -29.484375 C 22.160156 -28.617188 23.398438 -27.476562 24.265625 -26.0625 L 24.265625 -30.375 L 33.578125 -30.375 L 33.578125 0 L 24.265625 0 L 24.265625 -4.296875 C 23.359375 -2.878906 22.097656 -1.734375 20.484375 -0.859375 C 18.867188 0.00390625 16.992188 0.4375 14.859375 0.4375 C 12.390625 0.4375 10.140625 -0.203125 8.109375 -1.484375 C 6.078125 -2.773438 4.472656 -4.609375 3.296875 -6.984375 C 2.117188 -9.367188 1.53125 -12.117188 1.53125 -15.234375 Z M 24.265625 -15.1875 C 24.265625 -17.507812 23.617188 -19.335938 22.328125 -20.671875 C 21.046875 -22.015625 19.476562 -22.6875 17.625 -22.6875 C 15.78125 -22.6875 14.210938 -22.023438 12.921875 -20.703125 C 11.640625 -19.378906 11 -17.554688 11 -15.234375 C 11 -12.910156 11.640625 -11.066406 12.921875 -9.703125 C 14.210938 -8.347656 15.78125 -7.671875 17.625 -7.671875 C 19.476562 -7.671875 21.046875 -8.34375 22.328125 -9.6875 C 23.617188 -11.03125 24.265625 -12.863281 24.265625 -15.1875 Z M 24.265625 -15.1875 "/></g></g></g></svg>